<?xml version="1.0" standalone="no"?>
<!DOCTYPE svg PUBLIC "-//W3C//DTD SVG 20010904//EN"
 "http://www.w3.org/TR/2001/REC-SVG-20010904/DTD/svg10.dtd">
<svg version="1.0" xmlns="http://www.w3.org/2000/svg"
 width="840.000000pt" height="840.000000pt" viewBox="0 0 840.000000 840.000000"
 preserveAspectRatio="xMidYMid meet">
<metadata>
Created by potrace 1.14, written by Peter Selinger 2001-2017
</metadata>
<g transform="translate(0.000000,840.000000) scale(0.100000,-0.100000)"
fill="#000000" stroke="none">
<path d="M5497 7605 c-136 -151 -247 -278 -247 -282 1 -4 26 -28 56 -53 176
-143 348 -400 429 -642 52 -157 70 -268 70 -448 0 -180 -18 -291 -70 -448
-123 -368 -393 -678 -750 -861 -62 -32 -82 -38 -91 -28 -14 15 -469 809 -469
819 0 3 36 25 80 47 135 68 242 192 286 330 28 90 28 222 0 312 -57 180 -221
329 -417 379 -202 52 -418 -1 -568 -140 -121 -112 -178 -238 -178 -395 0 -209
116 -391 309 -487 l82 -41 -32 -57 c-17 -31 -126 -218 -242 -417 l-210 -360
-40 17 c-22 9 -75 38 -118 63 -374 222 -629 573 -719 990 -31 146 -31 408 0
554 62 285 195 532 398 738 l90 92 -75 79 c-41 44 -157 163 -259 266 -148 151
-188 186 -201 179 -34 -19 -248 -249 -317 -341 -234 -313 -377 -664 -425
-1040 -15 -122 -15 -378 0 -500 90 -713 531 -1337 1194 -1690 53 -28 95 -55
93 -58 -46 -81 -1864 -3210 -2194 -3777 -106 -183 -175 -311 -175 -327 0 -15
5 -34 13 -42 11 -14 349 -16 3401 -16 l3388 0 15 22 c9 12 16 29 16 36 0 8
-114 213 -254 456 -290 504 -806 1402 -1376 2396 -216 377 -467 813 -557 969
-90 156 -162 285 -161 286 2 1 44 23 93 49 447 228 830 628 1031 1077 129 288
185 551 185 869 0 475 -141 895 -434 1290 -69 93 -312 345 -372 387 l-31 21
-247 -273z m-1019 -4151 c134 -236 490 -861 789 -1388 300 -528 548 -968 551
-978 4 -17 -51 -18 -1627 -18 -1142 0 -1631 3 -1631 11 0 5 300 520 667 1142
366 623 731 1242 811 1377 177 302 171 292 185 287 6 -2 121 -197 255 -433z"/>
</g>
</svg>
